<svg width="18" height="18" viewBox="0 0 18 18" fill="none" xmlns="http://www.w3.org/2000/svg">
<path d="M8.9974 18C6.9151 17.9994 4.89747 17.2767 3.28825 15.9552C1.67904 14.6337 0.577829 12.7951 0.172316 10.7527C-0.233197 8.71023 0.0821041 6.5904 1.0644 4.75436C2.04671 2.91832 3.63522 1.47966 5.55934 0.683613C7.48347 -0.112436 9.62407 -0.216624 11.6164 0.388741C13.6088 0.994106 15.3297 2.27163 16.4857 4.00356C17.6417 5.73549 18.1614 7.81467 17.9562 9.88683C17.751 11.959 16.8336 13.8959 15.3603 15.3675C14.5255 16.2038 13.5336 16.867 12.4416 17.3187C11.3496 17.7705 10.1791 18.002 8.9974 18ZM8.9974 1.80004C7.33152 1.80031 5.71725 2.37815 4.42973 3.43524C3.14221 4.49233 2.26118 5.96323 1.93661 7.59718C1.61204 9.23113 1.8641 10.9271 2.64984 12.396C3.43558 13.8649 4.70636 15.0159 6.24566 15.6529C7.78496 16.2898 9.49744 16.3733 11.0914 15.8891C12.6853 15.4049 14.062 14.3828 14.9869 12.9973C15.9118 11.6117 16.3277 9.9484 16.1636 8.29063C15.9994 6.63286 15.2655 5.0833 14.0869 3.906C12.7351 2.56049 10.9047 1.79734 8.9974 1.80004Z" fill="#2A579A"/>
<path d="M12.0119 12.9244C11.7736 12.9234 11.5455 12.8279 11.3774 12.6589L5.33849 6.62447C5.16961 6.45559 5.07471 6.22653 5.07471 5.9877C5.07471 5.74888 5.16961 5.51982 5.33849 5.35094C5.50736 5.18206 5.73632 5.08716 5.97515 5.08716C6.21397 5.08716 6.44304 5.18206 6.61191 5.35094L12.651 11.3854C12.7779 11.5113 12.8644 11.6721 12.8996 11.8474C12.9348 12.0226 12.917 12.2044 12.8484 12.3695C12.7799 12.5346 12.6636 12.6756 12.5146 12.7744C12.3657 12.8732 12.1907 12.9255 12.0119 12.9244Z" fill="#2A579A"/>
<path d="M5.97779 12.9244C5.79903 12.9255 5.62403 12.8732 5.47506 12.7744C5.32609 12.6756 5.20984 12.5346 5.14129 12.3695C5.07274 12.2044 5.05494 12.0226 5.0901 11.8474C5.12526 11.6721 5.2119 11.5113 5.33883 11.3854L11.3778 5.35094C11.5467 5.18206 11.7757 5.08716 12.0146 5.08716C12.2534 5.08716 12.4824 5.18206 12.6513 5.35094C12.8202 5.51982 12.915 5.74888 12.915 5.9877C12.915 6.22653 12.8202 6.45559 12.6513 6.62447L6.61225 12.6589C6.44424 12.8279 6.2161 12.9234 5.97779 12.9244Z" fill="#2A579A"/>
</svg>
