<svg width="18" height="18" viewBox="0 0 18 18" fill="none" xmlns="http://www.w3.org/2000/svg">
<path d="M8.99741 18C6.91511 17.9994 4.89748 17.2767 3.28827 15.9552C1.67906 14.6337 0.57785 12.7951 0.172338 10.7527C-0.233175 8.71023 0.0820157 6.5904 1.06431 4.75436C2.04661 2.91832 3.63523 1.47966 5.55936 0.683613C7.48348 -0.112436 9.62407 -0.216624 11.6164 0.388741C13.6088 0.994106 15.3297 2.27163 16.4857 4.00356C17.6417 5.73549 18.1614 7.81467 17.9562 9.88683C17.751 11.959 16.8336 13.8959 15.3603 15.3675C14.5255 16.2038 13.5336 16.867 12.4416 17.3187C11.3496 17.7705 10.1791 18.002 8.99741 18ZM8.99741 1.80004C7.33153 1.80031 5.71726 2.37815 4.42975 3.43524C3.14223 4.49233 2.2612 5.96323 1.93663 7.59718C1.61206 9.23113 1.86411 10.9271 2.64986 12.396C3.4356 13.8649 4.70638 15.0159 6.24567 15.6529C7.78497 16.2898 9.49745 16.3733 11.0914 15.8891C12.6853 15.4049 14.062 14.3828 14.9869 12.9973C15.9118 11.6117 16.3277 9.9484 16.1636 8.29063C15.9994 6.63286 15.2655 5.0833 14.0869 3.906C13.4185 3.23856 12.6247 2.70977 11.7513 2.3499C10.8779 1.99004 9.9446 1.79719 8.99997 1.79999L8.99741 1.80004Z" fill="#2A579A"/>
<path d="M7.93534 12.0737C7.75696 12.0738 7.58264 12.021 7.43436 11.9218C7.28609 11.8227 7.17057 11.6817 7.10258 11.5168C7.03459 11.3519 7.01718 11.1704 7.05248 10.9956C7.08778 10.8207 7.17423 10.6603 7.30088 10.5347L12.1023 5.73326C12.2712 5.56439 12.5003 5.46948 12.7391 5.46948C12.9779 5.46948 13.207 5.56439 13.3759 5.73326C13.5447 5.90214 13.6396 6.13109 13.6396 6.36992C13.6396 6.60875 13.5447 6.83781 13.3759 7.00668L8.57441 11.8082C8.49069 11.8925 8.39108 11.9592 8.28141 12.0048C8.17174 12.0504 8.0541 12.0738 7.93534 12.0737Z" fill="#2A579A"/>
<path d="M7.93546 12.0736C7.71181 12.0718 7.49692 11.9867 7.33254 11.8351L4.67748 9.41862C4.49846 9.2575 4.39087 9.03182 4.37821 8.7913C4.36555 8.55079 4.4489 8.3151 4.61002 8.13608C4.77114 7.95706 4.99682 7.84936 5.23734 7.8367C5.47785 7.82405 5.71354 7.90751 5.89256 8.06863L8.54301 10.4896C8.71863 10.6503 8.8234 10.8742 8.83436 11.112C8.84533 11.3499 8.76165 11.5824 8.60156 11.7586C8.51906 11.8551 8.41697 11.933 8.30219 11.9873C8.1874 12.0416 8.06241 12.071 7.93546 12.0736Z" fill="#2A579A"/>
</svg>
